<svg width="161" height="24" viewBox="0 0 161 24" fill="none" xmlns="http://www.w3.org/2000/svg">
<path d="M40.056 10.502C40.692 10.802 41.196 11.222 41.568 11.762C41.952 12.29 42.144 12.896 42.144 13.58C42.144 14.72 41.742 15.614 40.938 16.262C40.134 16.898 39.132 17.216 37.932 17.216C36.732 17.216 35.73 16.898 34.926 16.262C34.122 15.614 33.72 14.72 33.72 13.58C33.72 12.896 33.906 12.29 34.278 11.762C34.662 11.222 35.172 10.802 35.808 10.502C34.692 9.866 34.134 8.924 34.134 7.676C34.134 6.548 34.506 5.684 35.25 5.084C36.006 4.484 36.9 4.184 37.932 4.184C38.964 4.184 39.852 4.484 40.596 5.084C41.352 5.684 41.73 6.548 41.73 7.676C41.73 8.924 41.172 9.866 40.056 10.502ZM39.732 5.966C39.252 5.594 38.652 5.408 37.932 5.408C37.212 5.408 36.606 5.594 36.114 5.966C35.634 6.338 35.394 6.908 35.394 7.676C35.394 8.396 35.64 8.954 36.132 9.35C36.636 9.746 37.236 9.944 37.932 9.944C38.628 9.944 39.222 9.746 39.714 9.35C40.218 8.954 40.47 8.396 40.47 7.676C40.47 6.908 40.224 6.338 39.732 5.966ZM35.79 15.38C36.33 15.788 37.044 15.992 37.932 15.992C38.82 15.992 39.534 15.788 40.074 15.38C40.614 14.96 40.884 14.36 40.884 13.58C40.884 12.8 40.614 12.206 40.074 11.798C39.534 11.378 38.82 11.168 37.932 11.168C37.044 11.168 36.33 11.378 35.79 11.798C35.25 12.206 34.98 12.8 34.98 13.58C34.98 14.36 35.25 14.96 35.79 15.38ZM56.3613 8.342C56.3613 9.29 56.1033 10.13 55.5873 10.862L51.4653 17H50.0433L53.1393 12.392C52.8153 12.464 52.4793 12.5 52.1313 12.5C50.8953 12.5 49.8813 12.116 49.0893 11.348C48.2973 10.568 47.9013 9.566 47.9013 8.342C47.9013 7.118 48.2973 6.122 49.0893 5.354C49.8813 4.574 50.8953 4.184 52.1313 4.184C53.3673 4.184 54.3813 4.574 55.1733 5.354C55.9653 6.122 56.3613 7.118 56.3613 8.342ZM49.9713 6.218C49.4313 6.758 49.1613 7.466 49.1613 8.342C49.1613 9.218 49.4313 9.926 49.9713 10.466C50.5233 11.006 51.2433 11.276 52.1313 11.276C53.0193 11.276 53.7333 11.006 54.2733 10.466C54.8253 9.926 55.1013 9.218 55.1013 8.342C55.1013 7.466 54.8253 6.758 54.2733 6.218C53.7333 5.678 53.0193 5.408 52.1313 5.408C51.2433 5.408 50.5233 5.678 49.9713 6.218ZM57.6263 17V15.866L62.1623 11.294C63.4583 9.998 64.1063 8.888 64.1063 7.964C64.1063 7.16 63.8543 6.536 63.3503 6.092C62.8583 5.636 62.2643 5.408 61.5683 5.408C60.2723 5.408 59.3303 6.002 58.7423 7.19L57.6803 6.56C58.0763 5.78 58.6163 5.192 59.3003 4.796C59.9843 4.388 60.7403 4.184 61.5683 4.184C62.5763 4.184 63.4583 4.526 64.2143 5.21C64.9823 5.882 65.3663 6.8 65.3663 7.964C65.3663 8.696 65.1623 9.398 64.7543 10.07C64.3463 10.742 63.7703 11.45 63.0263 12.194L59.4263 15.776H65.6363V17H57.6263ZM75.3675 15.452C74.5395 16.628 73.3695 17.216 71.8575 17.216C70.3455 17.216 69.1695 16.628 68.3295 15.452C67.5015 14.264 67.0875 12.68 67.0875 10.7C67.0875 8.72 67.5015 7.142 68.3295 5.966C69.1695 4.778 70.3455 4.184 71.8575 4.184C73.3695 4.184 74.5395 4.778 75.3675 5.966C76.2075 7.142 76.6275 8.72 76.6275 10.7C76.6275 12.68 76.2075 14.264 75.3675 15.452ZM69.2655 14.606C69.8895 15.53 70.7535 15.992 71.8575 15.992C72.9615 15.992 73.8195 15.53 74.4315 14.606C75.0555 13.682 75.3675 12.38 75.3675 10.7C75.3675 9.02 75.0555 7.718 74.4315 6.794C73.8195 5.87 72.9615 5.408 71.8575 5.408C70.7535 5.408 69.8895 5.87 69.2655 6.794C68.6535 7.718 68.3475 9.02 68.3475 10.7C68.3475 12.38 68.6535 13.682 69.2655 14.606ZM91.0254 8.342C91.0254 9.29 90.7674 10.13 90.2514 10.862L86.1294 17H84.7074L87.8034 12.392C87.4794 12.464 87.1434 12.5 86.7954 12.5C85.5594 12.5 84.5454 12.116 83.7534 11.348C82.9614 10.568 82.5654 9.566 82.5654 8.342C82.5654 7.118 82.9614 6.122 83.7534 5.354C84.5454 4.574 85.5594 4.184 86.7954 4.184C88.0314 4.184 89.0454 4.574 89.8374 5.354C90.6294 6.122 91.0254 7.118 91.0254 8.342ZM84.6354 6.218C84.0954 6.758 83.8254 7.466 83.8254 8.342C83.8254 9.218 84.0954 9.926 84.6354 10.466C85.1874 11.006 85.9074 11.276 86.7954 11.276C87.6834 11.276 88.3974 11.006 88.9374 10.466C89.4894 9.926 89.7654 9.218 89.7654 8.342C89.7654 7.466 89.4894 6.758 88.9374 6.218C88.3974 5.678 87.6834 5.408 86.7954 5.408C85.9074 5.408 85.1874 5.678 84.6354 6.218ZM100.57 8.342C100.57 9.29 100.312 10.13 99.7963 10.862L95.6743 17H94.2523L97.3483 12.392C97.0243 12.464 96.6883 12.5 96.3403 12.5C95.1043 12.5 94.0903 12.116 93.2983 11.348C92.5063 10.568 92.1103 9.566 92.1103 8.342C92.1103 7.118 92.5063 6.122 93.2983 5.354C94.0903 4.574 95.1043 4.184 96.3403 4.184C97.5763 4.184 98.5903 4.574 99.3823 5.354C100.174 6.122 100.57 7.118 100.57 8.342ZM94.1803 6.218C93.6403 6.758 93.3703 7.466 93.3703 8.342C93.3703 9.218 93.6403 9.926 94.1803 10.466C94.7323 11.006 95.4523 11.276 96.3403 11.276C97.2283 11.276 97.9423 11.006 98.4823 10.466C99.0343 9.926 99.3103 9.218 99.3103 8.342C99.3103 7.466 99.0343 6.758 98.4823 6.218C97.9423 5.678 97.2283 5.408 96.3403 5.408C95.4523 5.408 94.7323 5.678 94.1803 6.218ZM110.115 8.342C110.115 9.29 109.857 10.13 109.341 10.862L105.219 17H103.797L106.893 12.392C106.569 12.464 106.233 12.5 105.885 12.5C104.649 12.5 103.635 12.116 102.843 11.348C102.051 10.568 101.655 9.566 101.655 8.342C101.655 7.118 102.051 6.122 102.843 5.354C103.635 4.574 104.649 4.184 105.885 4.184C107.121 4.184 108.135 4.574 108.927 5.354C109.719 6.122 110.115 7.118 110.115 8.342ZM103.725 6.218C103.185 6.758 102.915 7.466 102.915 8.342C102.915 9.218 103.185 9.926 103.725 10.466C104.277 11.006 104.997 11.276 105.885 11.276C106.773 11.276 107.487 11.006 108.027 10.466C108.579 9.926 108.855 9.218 108.855 8.342C108.855 7.466 108.579 6.758 108.027 6.218C107.487 5.678 106.773 5.408 105.885 5.408C104.997 5.408 104.277 5.678 103.725 6.218ZM125.15 13.292V14.48H123.53V17H122.27V14.48H115.61V13.292L120.29 4.4H121.676L116.996 13.292H122.27V9.44H123.53V13.292H125.15ZM130.948 9.638C131.956 9.77 132.784 10.16 133.432 10.808C134.092 11.444 134.422 12.29 134.422 13.346C134.422 14.546 134.008 15.494 133.18 16.19C132.364 16.874 131.368 17.216 130.192 17.216C129.256 17.216 128.422 17 127.69 16.568C126.958 16.136 126.442 15.518 126.142 14.714L127.186 14.102C127.39 14.726 127.756 15.2 128.284 15.524C128.812 15.836 129.448 15.992 130.192 15.992C131.056 15.992 131.764 15.764 132.316 15.308C132.88 14.84 133.162 14.186 133.162 13.346C133.162 12.506 132.88 11.858 132.316 11.402C131.764 10.934 131.056 10.7 130.192 10.7V10.682L130.174 10.7H129.832L129.292 9.872L132.424 5.588H126.502V4.4H133.882V5.588L130.948 9.638ZM144.416 9.476C145.592 9.476 146.588 9.824 147.404 10.52C148.232 11.204 148.646 12.146 148.646 13.346C148.646 14.546 148.232 15.494 147.404 16.19C146.588 16.874 145.592 17.216 144.416 17.216C143.468 17.216 142.622 16.988 141.878 16.532C141.134 16.064 140.63 15.398 140.366 14.534L141.428 13.922C141.608 14.594 141.962 15.11 142.49 15.47C143.03 15.818 143.672 15.992 144.416 15.992C145.28 15.992 145.988 15.764 146.54 15.308C147.104 14.84 147.386 14.186 147.386 13.346C147.386 12.506 147.104 11.858 146.54 11.402C145.988 10.934 145.28 10.7 144.416 10.7H140.996L141.446 4.4H148.196V5.588H142.562L142.292 9.476H144.416ZM158.371 15.452C157.543 16.628 156.373 17.216 154.861 17.216C153.349 17.216 152.173 16.628 151.333 15.452C150.505 14.264 150.091 12.68 150.091 10.7C150.091 8.72 150.505 7.142 151.333 5.966C152.173 4.778 153.349 4.184 154.861 4.184C156.373 4.184 157.543 4.778 158.371 5.966C159.211 7.142 159.631 8.72 159.631 10.7C159.631 12.68 159.211 14.264 158.371 15.452ZM152.269 14.606C152.893 15.53 153.757 15.992 154.861 15.992C155.965 15.992 156.823 15.53 157.435 14.606C158.059 13.682 158.371 12.38 158.371 10.7C158.371 9.02 158.059 7.718 157.435 6.794C156.823 5.87 155.965 5.408 154.861 5.408C153.757 5.408 152.893 5.87 152.269 6.794C151.657 7.718 151.351 9.02 151.351 10.7C151.351 12.38 151.657 13.682 152.269 14.606Z" fill="black"/>
<path d="M19.4999 21.75H19.3724C4.63494 20.9025 2.54244 8.4675 2.24994 4.6725C2.22637 4.37744 2.26126 4.08062 2.3526 3.79906C2.44394 3.5175 2.58994 3.25673 2.78223 3.03169C2.97452 2.80665 3.20933 2.62177 3.4732 2.48763C3.73707 2.35349 4.02481 2.27274 4.31994 2.25H8.45244C8.75286 2.24971 9.04644 2.33963 9.29517 2.50812C9.54389 2.67661 9.73629 2.9159 9.84744 3.195L10.9874 6C11.0972 6.27266 11.1244 6.57156 11.0658 6.85957C11.0071 7.14758 10.8651 7.412 10.6574 7.62L9.05994 9.2325C9.30948 10.6506 9.98858 11.9578 11.0054 12.9772C12.0221 13.9967 13.3275 14.6792 14.7449 14.9325L16.3724 13.32C16.5836 13.1146 16.8505 12.9759 17.1399 12.9213C17.4293 12.8666 17.7284 12.8983 17.9999 13.0125L20.8274 14.145C21.1023 14.2597 21.3369 14.4536 21.5012 14.702C21.6654 14.9504 21.752 15.2422 21.7499 15.54V19.5C21.7499 20.0967 21.5129 20.669 21.0909 21.091C20.669 21.5129 20.0967 21.75 19.4999 21.75ZM4.49994 3.75C4.30103 3.75 4.11026 3.82902 3.96961 3.96967C3.82896 4.11032 3.74994 4.30109 3.74994 4.5V4.56C4.09494 9 6.30744 19.5 19.4549 20.25C19.5535 20.2561 19.6522 20.2427 19.7456 20.2105C19.8389 20.1783 19.925 20.1281 19.9988 20.0626C20.0727 19.9971 20.1329 19.9176 20.176 19.8288C20.2191 19.74 20.2442 19.6436 20.2499 19.545V15.54L17.4224 14.4075L15.2699 16.545L14.9099 16.5C8.38494 15.6825 7.49994 9.1575 7.49994 9.09L7.45494 8.73L9.58494 6.5775L8.45994 3.75H4.49994Z" fill="#333333"/>
</svg>
